<?xml version="1.0" encoding="UTF-8"?>
<svg width="32px" height="32px" viewBox="0 0 32 32" version="1.1" xmlns="http://www.w3.org/2000/svg" xmlns:xlink="http://www.w3.org/1999/xlink">
    <!-- Generator: Sketch 47 (45396) - http://www.bohemiancoding.com/sketch -->
    <title>icon_alert_message</title>
    <desc>Created with Sketch.</desc>
    <defs></defs>
    <g id="Page-1" stroke="none" stroke-width="1" fill="none" fill-rule="evenodd">
        <g id="00-toast" transform="translate(-29.000000, -838.000000)" fill-rule="nonzero" fill="#FF8C00">
            <g id="messages" transform="translate(10.000000, 820.000000)">
                <g id="通知" transform="translate(19.000000, 18.000000)">
                    <path d="M24,19.3333333 L22.899836,19.3333333 L22.899836,11.3883779 C22.899836,9.53266309 22.1821339,7.78804476 20.8789335,6.47586821 C19.5757045,5.16369166 17.8430205,4.44104621 16,4.44104621 C14.1569795,4.44104621 12.4242955,5.16369166 11.1210665,6.47586821 C9.81786609,7.78804476 9.10016401,9.53266306 9.10016401,11.3883779 L9.10016401,19.2596527 L8,19.2596527 L8,11.3883779 C8,9.23678945 8.83212624,7.21399811 10.3431367,5.69258019 C11.8541471,4.17116226 13.8631584,3.33333333 16.0000286,3.33333333 C18.1368988,3.33333333 20.1458815,4.17119106 21.6568633,5.69260899 C23.1678452,7.21402691 24,9.23678948 24,11.3884067 L24,19.3333333 Z" id="Shape"></path>
                    <path d="M26.0932869,24.6666667 C25.7887957,24.6666667 25.5353308,24.4477523 25.521428,24.1671494 C25.4417327,22.5600647 24.4814003,21.1178999 22.952573,20.3093687 C22.678775,20.1645677 22.5853258,19.8444612 22.7438828,19.5944171 C22.9024398,19.3443458 23.2530453,19.2590856 23.5267541,19.4038322 C24.4247771,19.8787719 25.188119,20.5559872 25.7342861,21.3623434 C26.2954872,22.1908575 26.6176919,23.1443801 26.6660687,24.1197615 C26.6803883,24.4084391 26.4357652,24.6530185 26.1196932,24.6660957 C26.1108217,24.6664763 26.1020394,24.6666667 26.0932869,24.6666667 Z" id="Shape"></path>
                    <path d="M5.88783051,24.6666667 C5.87936579,24.6666667 5.87090106,24.6664788 5.86234996,24.6661299 C5.55666973,24.6532486 5.3200893,24.4118048 5.33390926,24.1268865 C5.38196241,23.1372269 5.70877567,22.1734372 6.27902173,21.3396682 C6.83452652,20.5274217 7.6076093,19.8553667 8.51468808,19.3960678 C8.78354387,19.2599286 9.11997351,19.3527007 9.26603322,19.6033494 C9.41209291,19.8539712 9.31253164,20.1675235 9.04364704,20.3036628 C8.30114092,20.6796089 7.66824438,21.2298551 7.21339495,21.8948791 C6.74734562,22.5763536 6.48021731,23.3643135 6.44088799,24.1735812 C6.42744235,24.4505292 6.18228204,24.6666667 5.88783051,24.6666667 Z" id="Shape"></path>
                    <path d="M26.1215806,24.6666667 L5.8784194,24.6666667 C5.57738143,24.6666667 5.33333333,24.368184 5.33333333,24 C5.33333333,23.631816 5.57738143,23.3333333 5.8784194,23.3333333 L26.1215806,23.3333333 C26.4226186,23.3333333 26.6666667,23.631816 26.6666667,24 C26.6666667,24.368184 26.4226186,24.6666667 26.1215806,24.6666667 Z" id="Shape"></path>
                    <path d="M15.9999493,27.3333333 C14.6167309,27.3333333 13.3081733,26.9435228 12.3153195,26.235726 C11.2521629,25.4777897 10.6666667,24.4470238 10.6666667,23.3333333 L11.9669136,23.3333333 C11.9669136,24.003259 12.3556904,24.6493005 13.0615899,25.1525868 C13.8377922,25.7059438 14.8813545,26.0106992 15.9999831,26.0106992 C17.1186455,26.0106992 18.1622078,25.7059439 18.9384101,25.1525868 C19.6443096,24.6493349 20.0330864,24.003259 20.0330864,23.3333333 L21.3333333,23.3333333 C21.3333333,24.4470238 20.7478033,25.4777897 19.6846467,26.235726 C18.6917253,26.9435227 17.3831677,27.3333333 15.9999493,27.3333333 Z" id="Shape"></path>
                </g>
            </g>
        </g>
    </g>
</svg>