<?xml version="1.0" encoding="UTF-8"?>
<svg width="32px" height="32px" viewBox="0 0 32 32" version="1.1" xmlns="http://www.w3.org/2000/svg" xmlns:xlink="http://www.w3.org/1999/xlink">
    <!-- Generator: Sketch 47 (45396) - http://www.bohemiancoding.com/sketch -->
    <title>icon_alert_incorrect</title>
    <desc>Created with Sketch.</desc>
    <defs></defs>
    <g id="Page-1" stroke="none" stroke-width="1" fill="none" fill-rule="evenodd">
        <g id="00-toast" transform="translate(-29.000000, -749.000000)" fill="#DB4437">
            <g id="incorrect" transform="translate(10.000000, 730.000000)">
                <g id="提示" transform="translate(19.000000, 19.000000)">
                    <path d="M16,0 C18.2083444,0 20.2864486,0.4166625 22.234375,1.25 C24.1823014,2.0833375 25.8802011,3.22395109 27.328125,4.671875 C28.7760489,6.11979891 29.9166625,7.81769859 30.75,9.765625 C31.5833375,11.7135514 32,13.7916556 32,16 C32,18.2083444 31.5833375,20.2864486 30.75,22.234375 C29.9166625,24.1823014 28.7760489,25.8802011 27.328125,27.328125 C25.8802011,28.7760489 24.1823014,29.9166625 22.234375,30.75 C20.2864486,31.5833375 18.2083444,32 16,32 C13.7916556,32 11.7135514,31.5833375 9.765625,30.75 C7.81769859,29.9166625 6.11979891,28.7760489 4.671875,27.328125 C3.22395109,25.8802011 2.0833375,24.1823014 1.25,22.234375 C0.4166625,20.2864486 0,18.2083444 0,16 C0,13.7916556 0.4166625,11.7135514 1.25,9.765625 C2.0833375,7.81769859 3.22395109,6.11979891 4.671875,4.671875 C6.11979891,3.22395109 7.81769859,2.0833375 9.765625,1.25 C11.7135514,0.4166625 13.7916556,0 16,0 Z M16.0167224,31.015625 C18.0926256,31.015625 20.0401508,30.6198653 21.8593563,29.828334 C23.6785619,29.0368028 25.2633674,27.9610053 26.6138206,26.6009093 C27.9642738,25.2408133 29.0356917,23.6522004 29.8281063,21.835023 C30.620521,20.0178456 31.0167224,18.0724916 31.0167224,15.9989026 C31.0167224,13.9253136 30.620521,11.9799596 29.8281063,10.1627822 C29.0356917,8.34560477 27.9642738,6.76256597 26.6138206,5.41361831 C25.2633674,4.06467065 23.6785619,2.99444724 21.8593563,2.20291597 C20.0401508,1.4113847 18.0926256,1.015625 16.0167224,1.015625 C13.9408192,1.015625 11.993294,1.4113847 10.1740885,2.20291597 C8.35488295,2.99444724 6.77007737,4.06467065 5.41962419,5.41361831 C4.06917101,6.76256597 2.99775316,8.34560477 2.20533848,10.1627822 C1.4129238,11.9799596 1.01672241,13.9253136 1.01672241,15.9989026 C1.01672241,18.0724916 1.4129238,20.0178456 2.20533848,21.835023 C2.99775316,23.6522004 4.06917101,25.2408133 5.41962419,26.6009093 C6.77007737,27.9610053 8.35488295,29.0368028 10.1740885,29.828334 C11.993294,30.6198653 13.9408192,31.015625 16.0167224,31.015625 Z M16.7071068,16.2928932 L22.3535534,10.6464466 C22.5488155,10.4511845 22.5488155,10.134602 22.3535534,9.93933983 C22.1582912,9.74407768 21.8417088,9.74407768 21.6464466,9.93933983 L16,15.5857864 L10.7469517,10.3327381 C10.5516895,10.137476 10.235107,10.137476 10.0398449,10.3327381 C9.84458275,10.5280003 9.84458275,10.8445827 10.0398449,11.0398449 L15.2928932,16.2928932 L10.3327381,21.2530483 C10.137476,21.4483105 10.137476,21.764893 10.3327381,21.9601551 C10.5280003,22.1554173 10.8445827,22.1554173 11.0398449,21.9601551 L16,17 L21.3535534,22.3535534 C21.5488155,22.5488155 21.865398,22.5488155 22.0606602,22.3535534 C22.2559223,22.1582912 22.2559223,21.8417088 22.0606602,21.6464466 L16.7071068,16.2928932 Z" id="no"></path>
                </g>
            </g>
        </g>
    </g>
</svg>