<?xml version="1.0" encoding="UTF-8"?>
<svg width="24px" height="24px" viewBox="0 0 24 24" version="1.1" xmlns="http://www.w3.org/2000/svg" xmlns:xlink="http://www.w3.org/1999/xlink">
    <!-- Generator: Sketch 43.1 (39012) - http://www.bohemiancoding.com/sketch -->
    <title>icon_云箱监控</title>
    <desc>Created with Sketch.</desc>
    <defs></defs>
    <g id="云箱" stroke="none" stroke-width="1" fill="none" fill-rule="evenodd">
        <g id="云箱概览" transform="translate(-32.000000, -240.000000)" fill-rule="nonzero" fill="#49CFF3">
            <g id="nav">
                <g id="line-copy" transform="translate(0.000000, 218.000000)">
                    <g id="监控" transform="translate(32.000000, 22.000000)">
                        <path d="M16.4191816,11.4090827 C16.4191816,8.60186751 14.2123512,6.3176995 11.5000954,6.3176995 C8.78746064,6.3176995 6.58063015,8.60186751 6.58063015,11.4090827 C6.58063015,14.2167505 8.78746064,16.5009185 11.5000954,16.5009185 C14.2123512,16.5008884 16.4191816,14.2167204 16.4191816,11.4090827 L16.4191816,11.4090827 Z M8.05300673,11.4090827 C8.05300673,9.44195328 9.59951081,7.84167494 11.5000662,7.84167494 C13.4005924,7.84167494 14.9466593,9.44195328 14.9466593,11.4090827 C14.9466593,13.3762122 13.4005924,14.9769431 11.5000662,14.9769431 C9.59951079,14.9769431 8.05300673,13.3763329 8.05300673,11.4090827 L8.05300673,11.4090827 Z" id="Shape"></path>
                        <path d="M17.8517107,22.4556194 L16.0865553,22.4556194 L14.7652612,19.0375588 C18.3874516,17.6558102 20.9826717,14.0577787 20.9826717,9.83487231 C20.9826717,4.42304117 16.728634,0.0198922555 11.5000662,0.0198922555 C6.27146922,0.0198922555 2.0174316,4.42301101 2.0174316,9.83487231 C2.0174316,13.9935443 4.53362704,17.5476165 8.06950542,18.974833 C8.06688197,18.9809879 8.06166417,18.9848498 8.05915731,18.991216 L6.7231718,22.4557401 L5.44149205,22.4557401 C5.03488396,22.4557401 4.70523088,22.7969156 4.70523088,23.2176524 C4.70523088,23.6385401 5.03488396,23.9797155 5.44149205,23.9797155 L7.21973563,23.9797155 C7.22028948,23.9797155 7.22098906,23.9801078 7.22154291,23.9801078 C7.22235911,23.9801078 7.22314615,23.9797155 7.22393318,23.9797155 L15.5860271,23.9797155 C15.5868141,23.9797155 15.5876303,23.9801077 15.5884174,23.9801077 C15.5890004,23.9801077 15.5896708,23.9797155 15.5902538,23.9797155 L17.8517398,23.9797155 C18.2582313,23.9797155 18.5878844,23.63854 18.5878844,23.2176524 C18.5878553,22.7968854 18.2582313,22.4556194 17.8517107,22.4556194 L17.8517107,22.4556194 Z M3.48983734,9.83487231 C3.48983734,5.26324765 7.08319878,1.54392808 11.5000662,1.54392808 C15.9170211,1.54392808 19.5102659,5.26321748 19.5102659,9.83487231 C19.5102659,14.4065875 15.9169045,18.1258166 11.5000662,18.1258166 C7.08319876,18.1258166 3.48983734,14.4064668 3.48983734,9.83487231 L3.48983734,9.83487231 Z M9.42659523,19.5560804 C9.44469716,19.5090435 9.44321052,19.4607697 9.45186797,19.4127674 C10.1123984,19.5641361 10.7962777,19.649792 11.5000953,19.649792 C12.138064,19.649792 12.760904,19.5821181 13.3639514,19.4570888 C13.372259,19.4929925 13.3694315,19.5293186 13.3829569,19.5645585 L14.5006701,22.4557099 L8.30841572,22.4557099 L9.42659523,19.5560804 L9.42659523,19.5560804 Z" id="Shape"></path>
                        <path d="M10.4542069,4.37350013 C10.4542069,4.68263384 10.57716,4.9899271 10.7884073,5.20854731 C10.9996255,5.42704685 11.2963395,5.55433899 11.5950066,5.55433899 C11.8936736,5.55433899 12.1905334,5.42704685 12.4017515,5.20854731 C12.6129697,4.9899271 12.7358353,4.68263381 12.7358353,4.37350013 C12.7358353,4.06439658 12.6129697,3.75713351 12.4017515,3.53848311 C12.1905334,3.31998357 11.8936736,3.19272162 11.5950066,3.19272162 C11.2963104,3.19272162 10.9996255,3.31998357 10.7884073,3.53848311 C10.57716,3.75713348 10.4542069,4.06439658 10.4542069,4.37350013 L10.4542069,4.37350013 Z" id="Shape"></path>
                    </g>
                </g>
            </g>
        </g>
    </g>
</svg>