<?xml version="1.0" encoding="UTF-8"?>
<svg width="24px" height="24px" viewBox="0 0 24 24" version="1.1" xmlns="http://www.w3.org/2000/svg" xmlns:xlink="http://www.w3.org/1999/xlink">
    <!-- Generator: Sketch 47 (45396) - http://www.bohemiancoding.com/sketch -->
    <title>icon_tips</title>
    <desc>Created with Sketch.</desc>
    <defs></defs>
    <g id="Page-1" stroke="none" stroke-width="1" fill="none" fill-rule="evenodd">
        <g id="租户管理-编辑/添加企业信息-删除modal" transform="translate(-734.000000, -390.000000)" fill="#FFAA00">
            <g id="弹出" transform="translate(269.000000, 0.000000)">
                <g id="弹出框-Modal-确认浮层型" transform="translate(365.000000, 310.000000)">
                    <path d="M112,104 C105.371875,104 100,98.628125 100,92 C100,85.371875 105.371875,80 112,80 C118.628125,80 124,85.371875 124,92 C124,98.628125 118.628125,104 112,104 L112,104 Z M112.75,85.25 C112.75,84.8351562 112.414844,84.5 112,84.5 L112,84.5 C111.585156,84.5 111.25,84.8351562 111.25,85.25 L111.25,85.25 C111.25,85.6648438 111.585156,86 112,86 L112,86 C112.414844,86 112.75,85.6648438 112.75,85.25 L112.75,85.25 L112.75,85.25 Z M112.75,88.25 C112.75,87.8351562 112.414844,87.5 112,87.5 L112,87.5 C111.585156,87.5 111.25,87.8351562 111.25,88.25 L111.25,98.75 C111.25,99.1648438 111.585156,99.5 112,99.5 L112,99.5 C112.414844,99.5 112.75,99.1648438 112.75,98.75 L112.75,88.25 L112.75,88.25 Z" id="icon_tips" transform="translate(112.000000, 92.000000) scale(1, -1) translate(-112.000000, -92.000000) "></path>
                </g>
            </g>
        </g>
    </g>
</svg>