<?xml version="1.0" encoding="UTF-8"?>
<svg width="32px" height="32px" viewBox="0 0 32 32" version="1.1" xmlns="http://www.w3.org/2000/svg" xmlns:xlink="http://www.w3.org/1999/xlink">
    <!-- Generator: Sketch 47 (45396) - http://www.bohemiancoding.com/sketch -->
    <title>icon_alert_success</title>
    <desc>Created with Sketch.</desc>
    <defs></defs>
    <g id="Page-1" stroke="none" stroke-width="1" fill="none" fill-rule="evenodd">
        <g id="00-toast" transform="translate(-29.000000, -659.000000)" fill="#67B930">
            <g id="success" transform="translate(10.000000, 640.000000)">
                <g id="ok" transform="translate(19.000000, 19.000000)">
                    <path d="M16,0 C18.2083444,0 20.2864486,0.4166625 22.234375,1.25 C24.1823014,2.0833375 25.8802011,3.22395109 27.328125,4.671875 C28.7760489,6.11979891 29.9166625,7.81769859 30.75,9.765625 C31.5833375,11.7135514 32,13.7916556 32,16 C32,18.2083444 31.5833375,20.2864486 30.75,22.234375 C29.9166625,24.1823014 28.7760489,25.8802011 27.328125,27.328125 C25.8802011,28.7760489 24.1823014,29.9166625 22.234375,30.75 C20.2864486,31.5833375 18.2083444,32 16,32 C13.7916556,32 11.7135514,31.5833375 9.765625,30.75 C7.81769859,29.9166625 6.11979891,28.7760489 4.671875,27.328125 C3.22395109,25.8802011 2.0833375,24.1823014 1.25,22.234375 C0.4166625,20.2864486 0,18.2083444 0,16 C0,13.7916556 0.4166625,11.7135514 1.25,9.765625 C2.0833375,7.81769859 3.22395109,6.11979891 4.671875,4.671875 C6.11979891,3.22395109 7.81769859,2.0833375 9.765625,1.25 C11.7135514,0.4166625 13.7916556,0 16,0 Z M16,31 C18.0759032,31 20.0234284,30.6042403 21.8426339,29.812709 C23.6618395,29.0211778 25.246645,27.9453803 26.5970982,26.5852843 C27.9475514,25.2251883 29.0189693,23.6365754 29.8113839,21.819398 C30.6037986,20.0022206 31,18.0568666 31,15.9832776 C31,13.9096886 30.6037986,11.9643346 29.8113839,10.1471572 C29.0189693,8.32997977 27.9475514,6.74694097 26.5970982,5.39799331 C25.246645,4.04904565 23.6618395,2.97882224 21.8426339,2.18729097 C20.0234284,1.3957597 18.0759032,1 16,1 C13.9240968,1 11.9765716,1.3957597 10.1573661,2.18729097 C8.33816055,2.97882224 6.75335497,4.04904565 5.40290179,5.39799331 C4.0524486,6.74694097 2.98103075,8.32997977 2.18861607,10.1471572 C1.3962014,11.9643346 1,13.9096886 1,15.9832776 C1,18.0568666 1.3962014,20.0022206 2.18861607,21.819398 C2.98103075,23.6365754 4.0524486,25.2251883 5.40290179,26.5852843 C6.75335497,27.9453803 8.33816055,29.0211778 10.1573661,29.812709 C11.9765716,30.6042403 13.9240968,31 16,31 Z M13.5,20.2928932 L8.87867966,15.6715729 C8.68341751,15.4763107 8.36683502,15.4763107 8.17157288,15.6715729 C7.97631073,15.866835 7.97631073,16.1834175 8.17157288,16.3786797 L13.1213203,21.3284271 C13.3165825,21.5236893 13.633165,21.5236893 13.8284271,21.3284271 C13.84723,21.3096243 13.8642222,21.2896964 13.8794038,21.2688603 C13.9416366,21.2444746 13.9999675,21.2071393 14.0502525,21.1568542 L24.6568542,10.5502525 C24.8521164,10.3549904 24.8521164,10.0384079 24.6568542,9.84314575 C24.4615921,9.6478836 24.1450096,9.6478836 23.9497475,9.84314575 L13.5,20.2928932 Z" id="done"></path>
                </g>
            </g>
        </g>
    </g>
</svg>