<?xml version="1.0" encoding="UTF-8"?>
<svg width="24px" height="24px" viewBox="0 0 24 24" version="1.1" xmlns="http://www.w3.org/2000/svg" xmlns:xlink="http://www.w3.org/1999/xlink">
    <!-- Generator: Sketch 46.2 (44496) - http://www.bohemiancoding.com/sketch -->
    <title>icon_ckgl</title>
    <desc>Created with Sketch.</desc>
    <defs></defs>
    <g id="Page-1" stroke="none" stroke-width="1" fill="none" fill-rule="evenodd">
        <g id="01仓库管理-仓库信息" transform="translate(-32.000000, -380.000000)" stroke-width="0.4" stroke="#A983F9" fill="#A983F9" fill-rule="nonzero">
            <g id="nav">
                <g id="仓库管理" transform="translate(0.000000, 355.000000)">
                    <g id="大箱小箱" transform="translate(32.000000, 25.000000)">
                        <path d="M7.29785914,11.909296 L4.00057914,9.92548406 C3.73633718,9.764011 3.39167377,9.85051442 3.23657523,10.1157916 C3.07573231,10.3810688 3.16189816,10.7270825 3.42614011,10.8885556 L6.72342011,12.8723675 C6.98766206,13.0338406 7.33232548,12.9473371 7.48742401,12.6762931 C7.64826694,12.4104392 7.56210109,12.0644255 7.29785914,11.909296 Z M10.813426,23.5533756 C10.9455469,23.6077585 11.0949011,23.5922206 11.2327665,23.4834547 C11.1063899,23.5766826 10.9570357,23.6077585 10.813426,23.5533756 Z M7.29785914,11.909296 L4.00057914,9.92548406 C3.73633718,9.764011 3.39167377,9.85051442 3.23657523,10.1157916 C3.07573231,10.3810688 3.16189816,10.7270825 3.42614011,10.8885556 L6.72342011,12.8723675 C6.98766206,13.0338406 7.33232548,12.9473371 7.48742401,12.6762931 C7.64826694,12.4104392 7.56210109,12.0644255 7.29785914,11.909296 Z M7.29785914,11.909296 L4.00057914,9.92548406 C3.73633718,9.764011 3.39167377,9.85051442 3.23657523,10.1157916 C3.07573231,10.3810688 3.16189816,10.7270825 3.42614011,10.8885556 L6.72342011,12.8723675 C6.98766206,13.0338406 7.33232548,12.9473371 7.48742401,12.6762931 C7.64826694,12.4104392 7.56210109,12.0644255 7.29785914,11.909296 Z M7.29785914,11.909296 L4.00057914,9.92548406 C3.73633718,9.764011 3.39167377,9.85051442 3.23657523,10.1157916 C3.07573231,10.3810688 3.16189816,10.7270825 3.42614011,10.8885556 L6.72342011,12.8723675 C6.98766206,13.0338406 7.33232548,12.9473371 7.48742401,12.6762931 C7.64826694,12.4104392 7.56210109,12.0644255 7.29785914,11.909296 Z M7.29785914,11.909296 L4.00057914,9.92548406 C3.73633718,9.764011 3.39167377,9.85051442 3.23657523,10.1157916 C3.07573231,10.3810688 3.16189816,10.7270825 3.42614011,10.8885556 L6.72342011,12.8723675 C6.98766206,13.0338406 7.33232548,12.9473371 7.48742401,12.6762931 C7.64826694,12.4104392 7.56210109,12.0644255 7.29785914,11.909296 Z M7.29785914,11.909296 L4.00057914,9.92548406 C3.73633718,9.764011 3.39167377,9.85051442 3.23657523,10.1157916 C3.07573231,10.3810688 3.16189816,10.7270825 3.42614011,10.8885556 L6.72342011,12.8723675 C6.98766206,13.0338406 7.33232548,12.9473371 7.48742401,12.6762931 C7.64826694,12.4104392 7.56210109,12.0644255 7.29785914,11.909296 Z M11.2327665,23.482878 C11.0949011,23.5916439 10.9455469,23.6071818 10.813426,23.5527989 C10.9570357,23.6079587 11.1063899,23.5768828 11.2327665,23.482878 Z M11.5234326,12.0661556 L20.2663946,7.08355811 L21.1613706,6.5391632 C21.3405955,6.42209523 21.3744874,6.27330933 21.3980394,6.16662177 C21.421017,5.94747975 21.317618,5.71680394 21.0935867,5.60146604 L11.2132355,0.641936168 C11.0523926,0.561199635 10.8685721,0.561199635 10.7077292,0.641936168 L0.827377965,5.60146604 C0.45973699,5.84367564 0.517180892,6.37999689 0.517180892,6.43766584 L0.517180892,17.0199185 C0.517180892,17.215993 0.620579916,17.4005336 0.787167234,17.5043377 C0.787167234,17.5043377 10.454976,23.3692702 10.6215633,23.4442398 C10.9604824,23.6114798 11.1730248,23.5653446 11.3338677,23.4846081 L14.5507263,21.616134 C14.826457,21.4546609 14.9183672,21.1028803 14.7575243,20.8260694 C14.6024258,20.5492584 14.2462736,20.4569881 13.9762872,20.6126942 L11.7532082,21.9102457 L11.5234326,22.0313505 L11.5234326,12.0661556 Z M10.3975321,12.0661556 L10.3975321,22.002516 L1.63733699,16.7027393 L1.63733699,7.07202432 L10.3975321,12.0661556 Z M10.9604824,11.0857834 L2.26921992,6.13778729 L10.9604824,1.77801452 L19.6517448,6.13778729 L10.9604824,11.0857834 Z M18.7556199,21.203801 L23.2879438,18.4702927 C23.4143204,18.3895561 23.4947419,18.2511507 23.4947419,18.0954445 L23.4947419,13.0840126 C23.4947419,12.9075456 23.3626209,12.784134 23.2190111,12.7149313 L23.1041233,12.6572623 L18.6924316,10.4427746 C18.5717994,10.3851056 18.4281897,10.3851056 18.3075575,10.4427746 L13.9073546,12.6514954 C13.5856687,12.7754837 13.5052472,13.0522946 13.5052472,13.2080008 L13.5052472,18.0954445 C13.5052472,18.2511507 13.5856687,18.3895561 13.7177897,18.4702927 C13.7177897,18.4702927 18.2093284,21.1755432 18.232306,21.1813101 C18.232306,21.1818868 18.4999946,21.3808447 18.7556199,21.203801 Z M18.0720375,20.0965571 L14.3669058,17.8532349 L14.3669058,13.8221751 L18.0720375,15.9270919 L18.0720375,20.0965571 Z M18.5028667,15.1831624 L14.8896453,13.1243808 L18.5028667,11.3135757 L22.1103438,13.1243808 L18.5028667,15.1831624 Z M22.6330833,17.8532349 L18.933696,20.0907902 L18.933696,15.9270919 L22.6330833,13.8221751 L22.6330833,17.8532349 Z" id="Shape"></path>
                    </g>
                </g>
            </g>
        </g>
    </g>
</svg>