<?xml version="1.0" encoding="UTF-8"?>
<svg width="21px" height="21px" viewBox="0 0 21 21" version="1.1" xmlns="http://www.w3.org/2000/svg" xmlns:xlink="http://www.w3.org/1999/xlink">
    <!-- Generator: Sketch 43.1 (39012) - http://www.bohemiancoding.com/sketch -->
    <title>预测</title>
    <desc>Created with Sketch.</desc>
    <defs></defs>
    <g id="云箱" stroke="none" stroke-width="1" fill="none" fill-rule="evenodd">
        <g id="数据预测分析" transform="translate(-34.000000, -453.000000)" fill-rule="nonzero" fill="#DB71C3">
            <g id="nav">
                <g id="line-copy-5" transform="translate(0.000000, 425.000000)">
                    <g id="大箱小箱" transform="translate(33.000000, 26.000000)">
                        <g id="预测" transform="translate(1.000000, 2.000000)">
                            <path d="M18.4081563,0.0623781818 L1.65450917,0.0623781818 C1.22400768,0.0623634862 0.811133803,0.233370931 0.506720804,0.53777846 C0.202307804,0.84218599 0.0312933547,1.25505638 0.0313010526,1.68555714 L0.0313010526,18.4391992 C0.0312933547,18.8697 0.202307804,19.2825704 0.506720804,19.5869779 C0.811133803,19.8913854 1.22400768,20.0623929 1.65450917,20.0623782 L18.4081563,20.0623782 C19.3046003,20.0623578 20.0313011,19.3356418 20.0313011,18.4391992 L20.0313011,1.68555186 C20.0312981,0.789111362 19.3045983,0.062398582 18.4081563,0.0623781818 L18.4081563,0.0623781818 Z M18.6298381,18.2327643 C18.6295927,18.4691104 18.438067,18.6606507 18.2017205,18.6609146 L1.86094353,18.6609146 C1.62458724,18.6606522 1.43304446,18.4691201 1.43276932,18.2327643 L1.43276932,1.89198703 C1.43304164,1.65563124 1.62458731,1.46409971 1.86094353,1.46384444 L18.2017205,1.46384444 C18.4380639,1.46410543 18.6295878,1.65564399 18.6298303,1.89198703 L18.6298381,18.2327643 Z" id="Shape"></path>
                            <path d="M14.6654516,5.47791377 C14.4232028,5.0507732 13.8767961,4.89712547 13.4428474,5.13412156 L11.4487316,6.2365974 C11.107281,6.42523349 10.9854124,6.85135886 11.1765305,7.18837506 C11.3676487,7.52539127 11.799381,7.64567712 12.1408316,7.45704104 L12.8103432,7.08685506 L10.6625705,12.9808436 L8.67123368,10.1114597 C8.4556914,9.80176308 8.10236159,9.61332272 7.72178105,9.60509091 C7.34123051,9.59450687 6.97944618,9.7681061 6.75282526,10.0700364 L4.35834842,13.2121756 C4.20538717,13.4119174 4.17219491,13.6770984 4.27130618,13.9075775 C4.37041745,14.1380565 4.58672986,14.2987136 4.83855654,14.3288792 C5.09038322,14.3590448 5.33935134,14.2541223 5.49144211,14.053734 L7.68755263,11.1702369 L9.76284211,14.1593777 C9.98292372,14.4768389 10.3475435,14.6666614 10.7372705,14.6666691 L10.7483737,14.6666691 C11.1425256,14.6633479 11.5090429,14.4662476 11.7255779,14.1411626 L14.1541442,7.52812468 L14.4477305,8.0809039 C14.5651746,8.30231149 14.7934089,8.44502199 15.0464025,8.45524185 C15.2993961,8.4654617 15.5386825,8.34163703 15.6740647,8.13044253 C15.809447,7.91924803 15.8203408,7.65279473 15.70264,7.43152 L14.6654516,5.47791377 Z" id="Shape"></path>
                        </g>
                    </g>
                </g>
            </g>
        </g>
    </g>
</svg>