<svg xmlns:dc="http://purl.org/dc/elements/1.1/" xmlns:cc="http://creativecommons.org/ns#" xmlns:rdf="http://www.w3.org/1999/02/22-rdf-syntax-ns#" xmlns:svg="http://www.w3.org/2000/svg" xmlns="http://www.w3.org/2000/svg" xmlns:sodipodi="http://sodipodi.sourceforge.net/DTD/sodipodi-0.dtd" xmlns:inkscape="http://www.inkscape.org/namespaces/inkscape" viewBox="0 0 22.55336 27.850398749999997" version="1.1" x="0px" y="0px" width="60" height="60"><g transform="translate(-76.516756,-136.37575)"><path style="" d="m 79.904304,136.39 c -0.118168,-0.0348 -0.250889,-0.006 -0.344443,0.0877 l -2.941064,2.94105 c -0.136057,0.13609 -0.136068,0.3552 4.6e-5,0.4913 l 5.327351,5.3274 c -0.04544,0.095 -0.03488,0.20436 0.03551,0.27478 l 0.56178,0.56175 c 0.07593,0.0759 0.196888,0.0823 0.296568,0.0239 0.127446,0.0565 0.281289,0.0328 0.386041,-0.0719 l 1.13013,-1.13014 0.454783,0.45478 c -0.08425,0.10655 -0.0771,0.26067 0.02131,0.35914 l 0.158588,0.15859 -0.233977,0.23396 c -0.09123,0.0913 -0.09126,0.23818 -6e-5,0.32941 l 1.699229,1.69922 -0.405555,0.4056 a 2.1069685,1.3967544 45 0 0 -2.333461,-0.36848 2.1069685,1.3967544 45 0 0 -0.247126,1.19313 1.5151233,1.5151233 0 0 0 -0.08217,0.22591 1.5151233,1.5151233 0 0 0 1.071402,1.85564 1.5151233,1.5151233 0 0 0 0.974042,-0.0656 2.1069685,1.3967544 45 0 0 1.263597,-0.22935 2.1069685,1.3967544 45 0 0 -0.169953,-2.08311 l 0.431494,-0.43151 1.89939,1.8994 c 0.09126,0.0912 0.238187,0.0913 0.329419,6e-5 l 0.233967,-0.23396 0.183704,0.18366 c 0.0985,0.0984 0.252583,0.10557 0.359188,0.0213 l 0.449633,0.44962 -0.993759,0.99381 c -0.1021,0.10208 -0.127592,0.25092 -0.07652,0.37636 l -0.0054,0.005 c -0.106203,0.10619 -0.117028,0.26636 -0.02427,0.3591 l 0.561778,0.56176 c 0.08861,0.0887 0.238661,0.0824 0.344473,-0.0109 l 5.315756,5.31573 c 0.04253,0.0426 0.09316,0.0718 0.146836,0.0877 0.118178,0.0348 0.250899,0.006 0.34444,-0.0877 l 2.94107,-2.94105 c 0.136062,-0.13611 0.136071,-0.35521 -4.3e-5,-0.49131 l -5.327347,-5.3274 c 0.04544,-0.095 0.03488,-0.20436 -0.03551,-0.27478 l -0.561781,-0.56175 c -0.07593,-0.0759 -0.196888,-0.0823 -0.296541,-0.024 -0.127446,-0.0565 -0.28129,-0.0328 -0.386042,0.0719 l -1.265856,1.26592 -0.448211,-0.44816 1.63641,-1.63643 c 0.106203,-0.10619 0.106162,-0.2772 2.6e-5,-0.38338 l -0.288871,-0.28886 0.205662,-0.20572 c 0.09276,-0.0927 0.08194,-0.25287 -0.0243,-0.35907 l -1.445585,-1.44562 c -0.106191,-0.1062 -0.266367,-0.11702 -0.359114,-0.0243 l -0.205646,0.20566 -0.539595,-0.53957 0.183958,-0.18399 c 0.09276,-0.0927 0.08184,-0.25289 -0.0243,-0.35907 L 88.3398,143.15752 c -0.106191,-0.10621 -0.266299,-0.11702 -0.359046,-0.0243 l -0.184023,0.18396 -0.286068,-0.28607 c -0.03313,-0.0332 -0.0727,-0.0559 -0.114585,-0.0684 -0.09205,-0.0278 -0.195782,-0.005 -0.2688,0.0684 l -1.636404,1.63637 -0.453355,-0.4533 1.129541,-1.12956 c 0.102102,-0.10209 0.127595,-0.25094 0.07652,-0.37637 l 0.0054,-0.005 c 0.106203,-0.10619 0.117032,-0.26638 0.02427,-0.35912 l -0.561787,-0.56176 c -0.08861,-0.0887 -0.238652,-0.0824 -0.344464,0.0109 l -5.315755,-5.31574 c -0.04254,-0.0426 -0.09316,-0.0718 -0.146847,-0.0877 z m 0.166818,0.51517 c 0.04756,0.0138 0.0923,0.04 0.129876,0.0777 l 4.982811,4.99246 -0.195834,0.19582 -0.666029,-0.66605 -0.413467,0.41349 0.666029,0.66605 -0.200867,0.20084 -0.666038,-0.66605 -0.567609,0.56769 0.383178,0.38316 -0.200877,0.20084 -0.383196,-0.38309 -0.587682,0.58762 0.666039,0.66605 -0.200877,0.20084 -0.666038,-0.66605 -0.506974,0.50699 0.666039,0.66605 -0.168204,0.1682 -4.979839,-4.98949 c -0.120387,-0.12057 -0.120297,-0.31494 2.1e-4,-0.43568 l 2.604436,-2.60944 c 0.08281,-0.083 0.200417,-0.10895 0.304911,-0.0779 z m 0.08952,0.48481 c -0.09205,-0.0278 -0.195741,-0.005 -0.268736,0.0685 l -0.221786,0.22178 0.62167,0.6216 0.413449,-0.41342 -0.430011,-0.43 c -0.03313,-0.0332 -0.0727,-0.0559 -0.114594,-0.0684 z m 0.711992,0.66583 -0.413448,0.41342 0.530719,0.53073 0.413449,-0.41342 z m -1.403326,-0.17472 -0.567674,0.56765 0.621591,0.62159 0.567686,-0.56766 z m 2.101434,0.87285 -0.413449,0.41342 0.514979,0.51506 0.413469,-0.41349 z m -1.312433,-0.0839 -0.567686,0.56766 0.530787,0.53076 0.567686,-0.56767 z m 1.994895,0.76629 -0.413449,0.41341 0.528414,0.52853 0.413466,-0.41349 z m -3.552449,-0.78676 -0.587679,0.58761 0.621653,0.62166 0.587679,-0.58761 z m 2.255739,0.71862 -0.567686,0.56767 0.514996,0.51499 0.567686,-0.56766 z m 1.992539,0.76399 -0.413458,0.41342 0.521919,0.52192 0.413467,-0.41348 z m -3.459219,-0.69362 -0.587688,0.58768 0.530785,0.53077 0.587604,-0.58764 z m 2.149051,0.61208 -0.567685,0.56766 0.528499,0.52847 0.567668,-0.56759 z m 1.999481,0.77084 -0.413467,0.41349 0.516181,0.51626 0.413466,-0.41349 z m -5.726178,-1.38335 -0.315286,0.3153 c -0.106203,0.10619 -0.106259,0.27717 -2.6e-5,0.38337 l 0.430008,0.43001 0.506976,-0.507 z m 2.275724,0.69871 -0.587614,0.58764 0.514999,0.51499 0.587612,-0.58763 z m 2.146855,0.60973 -0.567686,0.56766 0.52191,0.52192 0.567618,-0.56768 z m -3.633547,-0.5193 -0.506973,0.50699 0.530719,0.53074 0.506974,-0.507 z m 2.169087,0.59197 -0.587615,0.58764 0.528432,0.52845 0.587682,-0.58762 z m 2.1537,0.61663 -0.567616,0.56767 0.516199,0.5162 0.567668,-0.5676 z m -3.624599,-0.51046 -0.506974,0.50699 0.514997,0.515 0.506976,-0.507 z m 2.166734,0.5899 -0.587669,0.58761 0.521909,0.52192 0.587682,-0.58762 z m 5.896698,1.98558 c 0.02954,0.009 0.05746,0.0247 0.08076,0.0482 l 0.800019,0.80006 c 4.5e-5,2e-5 9.9e-5,2e-5 1.35e-4,4e-5 0.01664,0.009 0.03229,0.0201 0.04634,0.0342 l 3.362092,3.36208 c 0.07479,0.0748 0.07481,0.1953 -1e-5,0.27011 l -1.616788,1.61675 c -0.0748,0.0748 -0.195236,0.0748 -0.270043,1e-5 l -0.799969,-0.79998 c -0.01674,-0.009 -0.03236,-0.0203 -0.04648,-0.0344 l -3.362095,-3.36206 c -0.07479,-0.0748 -0.07482,-0.19524 -8e-6,-0.27005 l 1.61672,-1.61677 c 0.05147,-0.0514 0.124429,-0.0675 0.189347,-0.0482 z m -7.381079,-1.89296 -0.506973,0.50699 0.528432,0.52845 0.507041,-0.50697 z m 2.173709,0.59662 -0.587669,0.58761 0.516269,0.5162 0.587602,-0.58763 z m -1.477804,0.0992 -0.506973,0.50699 0.521842,0.52191 0.507059,-0.50704 z m 0.689258,0.68924 -0.506973,0.50699 0.51618,0.51626 0.50706,-0.50704 z m 11.978582,7.02142 4.979845,4.98949 c 0.120377,0.12057 0.120297,0.31494 -2.1e-4,0.43568 l -2.604432,2.60944 c -0.08281,0.083 -0.200418,0.10895 -0.304911,0.0779 -0.04756,-0.0138 -0.09231,-0.04 -0.129875,-0.0777 l -4.982812,-4.99246 0.195825,-0.19582 0.666038,0.66605 0.413467,-0.41349 -0.666039,-0.66605 0.200877,-0.20084 0.666029,0.66605 0.567618,-0.56769 -0.564066,-0.56404 0.193145,-0.19312 c 0.0027,-0.002 0.0047,-0.006 0.0074,-0.008 l 0.564544,0.56446 0.587682,-0.58762 -0.666039,-0.66605 0.200877,-0.20085 0.666029,0.66605 0.506973,-0.50699 -0.666029,-0.66605 z m -8.386997,-1.69509 a 1.6140312,1.0699758 45 0 1 0.873372,0.54554 1.6140312,1.0699758 45 0 1 0.384692,1.89788 1.6140312,1.0699758 45 0 1 -0.651354,0.2261 1.4762162,0.97861523 45 0 0 0.475177,-0.20457 1.4762162,0.97861523 45 0 0 -0.351828,-1.73585 1.4762162,0.97861523 45 0 0 -1.735833,-0.35184 1.4762162,0.97861523 45 0 0 -0.183757,0.79127 1.6140312,1.0699758 45 0 1 0.165017,-1.00775 1.6140312,1.0699758 45 0 1 1.024494,-0.16079 z m 9.052248,2.69667 -0.507062,0.50705 0.516269,0.5162 0.506973,-0.50699 z m -8.794149,-1.99991 a 0.56463274,0.37430712 45 0 1 0.305561,0.19087 0.56463274,0.37430712 45 0 1 0.13457,0.66388 0.56463274,0.37430712 45 0 1 -0.663936,-0.13452 0.56463274,0.37430712 45 0 1 -0.134552,-0.66395 0.56463274,0.37430712 45 0 1 0.358354,-0.0563 z m 9.477745,2.6835 -0.507059,0.50704 0.521928,0.52186 0.506973,-0.50699 z m -1.391535,0.0243 -0.587602,0.58763 0.516199,0.51619 0.587672,-0.58762 z m 2.080843,0.66502 -0.507042,0.50698 0.5285,0.52847 0.506973,-0.50699 z m -1.397179,0.0186 -0.587679,0.58761 0.521919,0.52193 0.587673,-0.58762 z m 2.092998,0.67727 -0.506976,0.507 0.514999,0.51499 0.506974,-0.507 z m -3.565159,-0.57234 -0.567668,0.5676 0.516249,0.51628 0.567618,-0.56769 z m 2.161482,0.58435 -0.58768,0.58761 0.5285,0.52847 0.587611,-0.58763 z m 2.086152,0.67035 -0.506973,0.507 0.530717,0.53074 0.506976,-0.507 z m -3.564034,-0.57116 -0.567608,0.56769 0.521842,0.5219 0.567686,-0.56766 z m 2.173709,0.59663 -0.587602,0.58763 0.514997,0.515 0.587604,-0.58764 z m 2.088448,0.67265 -0.506984,0.50699 0.621653,0.62167 0.315296,-0.31529 c 0.106203,-0.10619 0.106258,-0.27718 2.6e-5,-0.38338 z m -5.714213,-1.18444 -0.413467,0.41349 0.516181,0.51626 0.413467,-0.41349 z m 2.141379,0.60443 -0.567658,0.5676 0.528481,0.52854 0.567676,-0.56767 z m 2.166744,0.58989 -0.587612,0.58763 0.530702,0.5308 0.587697,-0.58767 z m -3.624581,-0.51052 -0.413466,0.41348 0.521928,0.52186 0.413448,-0.41342 z m 2.153701,0.61663 -0.567686,0.56766 0.514996,0.515 0.567686,-0.56766 z m 2.169086,0.59197 -0.58768,0.58761 0.621651,0.62168 0.587681,-0.58762 z m -3.63344,-0.51942 -0.413467,0.41348 0.528432,0.52846 0.413448,-0.41342 z m 2.146761,0.6098 -0.567686,0.56766 0.530787,0.53075 0.567686,-0.56766 z m -1.450862,0.0861 -0.413479,0.41349 0.515,0.51499 0.413448,-0.41342 z m 2.149042,0.61207 -0.567676,0.56767 0.621593,0.62158 0.567686,-0.56767 z m -1.466667,0.0704 -0.413449,0.41342 0.530717,0.53075 0.413451,-0.41343 z m 0.698114,0.69815 -0.413448,0.41342 0.430008,0.43 c 0.03313,0.0332 0.0727,0.0559 0.114594,0.0684 0.09205,0.0278 0.195741,0.005 0.268733,-0.0684 l 0.221789,-0.22178 z" fill="#EC5F65" fill-opacity="1" stroke="none"/></g><text x="0" y="37.280319" fill="#EC5F65" font-size="5px" font-weight="bold" font-family="'Helvetica Neue', Helvetica, Arial-Unicode, Arial, Sans-serif">Created by Viktor Korobkov</text><text x="0" y="42.280319" fill="#EC5F65" font-size="5px" font-weight="bold" font-family="'Helvetica Neue', Helvetica, Arial-Unicode, Arial, Sans-serif">from the Noun Project</text></svg>