<svg xmlns="http://www.w3.org/2000/svg" xmlns:xlink="http://www.w3.org/1999/xlink" version="1.1" x="0px" y="0px" viewBox="0 0 100 125" enable-background="new 0 0 100 100" xml:space="preserve"><path d="M98.486,49.957c0,26.11-21.174,47.285-47.283,47.285c-26.108,0-47.266-21.175-47.266-47.285  c0-26.092,21.158-47.267,47.266-47.267C77.312,2.689,98.486,23.865,98.486,49.957L98.486,49.957z M51.455,60.789  c-0.088-0.74,0-1.496,0.223-2.207c0.238-0.756,0.592-1.482,1.023-2.135c0.549-0.859,1.186-1.63,1.912-2.355  c0.695-0.712,1.482-1.334,2.324-1.896c0.668-0.43,1.395-0.771,2.166-1.023c0.709-0.236,1.451-0.311,2.191-0.207  c0.477,0.029,0.904,0.252,1.23,0.592l0.857,0.83c0.299,0.312,0.803,0.312,1.113,0l1.391-1.393c0.312-0.311,0.312-0.799,0-1.111  l-17.84-17.854c-0.428-0.415-0.979-0.667-1.57-0.682c-1.08-0.044-2.135,0.148-3.125,0.534c-1.082,0.415-2.105,0.949-3.053,1.615  c-1.23,0.845-2.385,1.792-3.438,2.845c-1.748,1.985-3.244,4.164-4.475,6.49c-0.387,0.993-0.564,2.06-0.535,3.126  c0.031,0.593,0.268,1.156,0.695,1.571l17.826,17.854c0.329,0.297,0.803,0.297,1.127,0l1.381-1.408c0.309-0.296,0.309-0.8,0-1.096  l-0.832-0.846C51.709,61.692,51.5,61.248,51.455,60.789z M49.664,59.663c-0.342-0.355-0.533-0.785-0.594-1.26  c-0.074-0.741,0-1.481,0.223-2.193c0.252-0.755,0.594-1.495,1.037-2.163c0.534-0.83,1.186-1.629,1.883-2.326  c0.725-0.727,1.51-1.349,2.355-1.912c0.664-0.429,1.391-0.771,2.146-1.021c0.713-0.223,1.467-0.297,2.209-0.223  c0.459,0.059,0.904,0.267,1.23,0.593l-7.35-7.349c-0.326-0.326-0.771-0.564-1.246-0.593c-0.74-0.089-1.495-0.015-2.192,0.223  c-0.771,0.237-1.482,0.592-2.164,1.022c-0.844,0.548-1.629,1.186-2.342,1.882c-0.725,0.725-1.348,1.496-1.91,2.356  c-0.43,0.667-0.771,1.392-1.023,2.147c-0.205,0.696-0.297,1.467-0.205,2.208c0.045,0.46,0.25,0.904,0.592,1.244L49.664,59.663z   M50.551,29.525l10.344,10.357l13.736-13.721L64.273,15.803L50.551,29.525z M52.924,29.525l7.971,7.986l11.365-11.35l-7.986-7.972  L52.924,29.525z M61.34,55.573l-5.275,5.274c-0.119,0.148-0.221,0.356-0.221,0.549v2.563c0,0.431,0.354,0.785,0.783,0.785  c0.209,0,0.4-0.103,0.551-0.251l7.836-7.81c0.297-0.326,0.297-0.8,0-1.111c-0.148-0.147-0.355-0.222-0.562-0.222h-2.549  C61.695,55.352,61.486,55.426,61.34,55.573z M46.804,36.459c-0.74-0.104-1.5-0.015-2.209,0.222  c-0.756,0.237-1.482,0.563-2.164,1.008c-0.83,0.563-1.629,1.186-2.326,1.896c-0.727,0.726-1.348,1.497-1.896,2.356  c-0.445,0.667-0.785,1.378-1.037,2.149c-0.221,0.696-0.295,1.452-0.221,2.193c0.059,0.474,0.264,0.919,0.592,1.245l2.398,2.399  c-0.34-0.355-0.562-0.786-0.592-1.274c-0.104-0.741-0.027-1.48,0.209-2.177c0.252-0.755,0.592-1.496,1.021-2.163  c0.562-0.845,1.188-1.63,1.896-2.341c0.727-0.727,1.496-1.349,2.355-1.912c0.654-0.415,1.381-0.771,2.135-1.007  c0.727-0.222,1.469-0.296,2.209-0.222c0.457,0.044,0.902,0.252,1.242,0.593l-2.371-2.372C47.708,36.711,47.263,36.489,46.804,36.459  z M61.621,68.271c-0.92,0.06-1.631,0.875-1.57,1.808c0.072,0.919,0.873,1.631,1.793,1.542c5.525-0.355,9.912-4.756,10.283-10.269  c0.074-0.934-0.623-1.733-1.555-1.794c-0.936-0.059-1.736,0.639-1.795,1.571C68.512,64.953,65.459,68.021,61.621,68.271z   M62.123,75.814c-0.932,0.06-1.613,0.874-1.555,1.793c0.061,0.934,0.875,1.615,1.795,1.556c9.289-0.622,16.668-8.017,17.305-17.292  c0.076-0.934-0.637-1.719-1.555-1.809c-0.934-0.044-1.748,0.652-1.809,1.586C75.803,69.235,69.74,75.295,62.123,75.814z   M16.292,63.752L26.65,74.11l13.736-13.722L30.029,50.031L16.292,63.752z M18.693,63.752l7.957,7.987l11.367-11.351l-7.988-7.986  L18.693,63.752z"/><text x="0" y="115" fill="#EC5F65" font-size="5px" font-weight="bold" font-family="'Helvetica Neue', Helvetica, Arial-Unicode, Arial, Sans-serif">Created by Aldric Rodríguez</text><text x="0" y="120" fill="#EC5F65" font-size="5px" font-weight="bold" font-family="'Helvetica Neue', Helvetica, Arial-Unicode, Arial, Sans-serif">from the Noun Project</text></svg>