<?xml version="1.0" standalone="no"?><!DOCTYPE svg PUBLIC "-//W3C//DTD SVG 1.1//EN" "http://www.w3.org/Graphics/SVG/1.1/DTD/svg11.dtd"><svg t="1496741017917" class="icon" style="" viewBox="0 0 1024 1024" version="1.1" xmlns="http://www.w3.org/2000/svg" p-id="5281" xmlns:xlink="http://www.w3.org/1999/xlink" width="30" height="30"><defs><style type="text/css"></style></defs><path d="M373.84127 727.816578l-63.209877 63.209877c-5.417989 5.417989-16.253968 5.417989-21.671957 0l-232.973545-234.779541c-5.417989-5.417989-5.417989-16.253968 0-21.671958l63.209876-63.209877c5.417989-5.417989 16.253968-5.417989 21.671958 0L373.84127 704.338624c7.223986 7.223986 7.223986 16.253968 0 23.477954zM791.026455 310.631393l-63.209877 63.209877c-5.417989 5.417989-16.253968 5.417989-21.671957 0l-234.779542-232.973545c-5.417989-5.417989-5.417989-16.253968 0-21.671958l63.209877-63.209876c5.417989-5.417989 16.253968-5.417989 21.671958 0l234.779541 232.973545c5.417989 5.417989 5.417989 16.253968 0 21.671957zM709.756614 561.664903l-148.091711 148.091711c-5.417989 5.417989-16.253968 5.417989-21.671958 0L135.449735 305.213404c-5.417989-5.417989-5.417989-16.253968 0-21.671958l148.091711-148.091711c5.417989-5.417989 16.253968-5.417989 21.671958 0l404.54321 404.54321c5.417989 5.417989 5.417989 16.253968 0 21.671958z" fill="#EC5F65" p-id="5282"></path><path d="M213.811922 590.380247L639.051852 165.104198l42.133898 42.133897-425.23993 425.25799zM789.220459 789.220459c41.537919-41.537919 63.209877-95.717813 63.209876-153.509701V614.038801h-74.045855v21.671957c0 37.925926-14.447972 74.045855-41.537919 102.941799-27.089947 27.089947-63.209877 41.537919-102.941799 41.537919H614.038801v72.239859h21.671957c57.791887 0 111.971781-21.671958 153.509701-63.209876z" fill="#EC5F65" p-id="5283"></path><path d="M707.950617 707.950617c14.447972-14.447972 23.477954-36.119929 23.477954-57.791887v-21.671958h-102.941799v102.941799H650.15873c21.671958 0 43.343915-7.223986 57.791887-23.477954zM951.760141 614.038801h-52.373898v21.671957c0 70.433862-27.089947 137.255732-77.657848 187.823634a263.675485 263.675485 0 0 1-187.823633 77.657848H614.038801V975.238095h21.671957c90.299824 0 175.181658-34.313933 238.391535-99.329806 63.209877-63.209877 99.329806-148.091711 99.329806-238.391534v-21.671958h-21.671958z" fill="#EC5F65" p-id="5284"></path></svg>